#!OML:ASF E:\Mandelcareful walks\Project 1\Capture day 1\Session 1\Subject1.ASF
:FULLY-SPECIFIED
:DEGREES
892
root 6.49612 15.8655 -2.14649 -148.518 -75.6859 155.391
lowerback 30.1077 0.377838 -5.0365
upperback 5.53809 -1.7519 -0.408081
thorax -10.1974 -0.917776 3.1576
lowerneck -30.7083 -0.432455 -4.91448
upperneck 35.3272 0.940679 0.894947
head 18.4663 -0.401639 1.42422
rclavicle 1.74931e-014 3.51849e-014
rhumerus -24.2596 1.62974 -88.531
rradius 79.6576
rwrist -17.6099
rhand -13.4206 -25.6723
rfingers 7.12502
rthumb 12.6877 -55.2669
lclavicle 1.74931e-014 3.51849e-014
lhumerus -16.2538 -18.7434 89.2437
lradius 72.4242
lwrist 11.8269
lhand -18.6085 -12.6115
lfingers 7.12502
lthumb 7.683 17.229
rfemur -34.0222 -7.99019 6.8128
rtibia 51.3234
rfoot -19.9517 -1.81863
rtoes -3.48517
lfemur -29.9967 18.2703 -14.203
ltibia 47.9147
lfoot -17.7127 6.15138
ltoes -7.22511
893
root 6.49001 15.8656 -2.14009 -148.485 -75.6412 155.267
lowerback 30.1503 0.396981 -4.93616
upperback 5.58711 -1.70701 -0.439324
thorax -10.1701 -0.904774 3.04787
lowerneck -30.5408 -0.12046 -4.73444
upperneck 35.6627 1.32231 0.785381
head 18.5999 -0.263968 1.43334
rclavicle 1.90833e-014 -1.31198e-014
rhumerus -24.3367 1.58863 -88.4218
rradius 79.6334
rwrist -17.5567
rhand -13.4632 -25.9692
rfingers 7.12502
rthumb 12.6467 -55.5663
lclavicle 1.90833e-014 -1.31198e-014
lhumerus -16.4568 -18.7891 89.3516
lradius 72.5062
lwrist 11.8342
lhand -18.6191 -13.0271
lfingers 7.12502
lthumb 7.67281 16.8137
rfemur -33.9108 -8.05717 6.71526
rtibia 51.3098
rfoot -19.9078 -1.88609
rtoes -3.66717
lfemur -29.8367 18.2435 -14.2583
ltibia 47.8718
lfoot -17.7555 6.20187
ltoes -7.34017
894
root 6.48883 15.8664 -2.13015 -148.103 -75.7366 154.92
lowerback 30.1712 0.349481 -4.77184
upperback 5.56687 -1.71545 -0.44174
thorax -10.2083 -0.910782 2.95406
lowerneck -30.4261 0.169921 -4.48821
upperneck 36.0824 1.6824 0.567224
head 18.8023 -0.147372 1.37467
rclavicle -4.67144e-015 -3.27995e-014
rhumerus -24.4697 1.55078 -88.2752
rradius 79.6554
rwrist -17.5317
rhand -13.4855 -26.1656
rfingers 7.12502
rthumb 12.6252 -55.7641
lclavicle -4.67144e-015 -3.27995e-014
lhumerus -16.6617 -18.7751 89.5529
lradius 72.5248
lwrist 11.7332
lhand -18.6658 -13.4987
lfingers 7.12502
lthumb 7.62769 16.3437
rfemur -33.8792 -8.25873 6.63358
rtibia 51.2244
rfoot -19.9141 -1.64053
rtoes -3.64728
lfemur -29.8965 18.1619 -14.366
ltibia 47.8465
lfoot -17.708 6.20175
ltoes -7.39165
895
root 6.50263 15.8684 -2.12442 -146.919 -76.0279 153.806
lowerback 30.2505 0.246259 -4.65259
upperback 5.54142 -1.81179 -0.448128
thorax -10.2731 -0.954641 2.91626
lowerneck -30.3051 0.443586 -4.15712
upperneck 36.3179 2.02214 0.265656
head 18.9056 -0.0297017 1.25486
rclavicle 8.64713e-015 -2.14687e-014
rhumerus -24.5234 1.40985 -88.1576
rradius 79.675
rwrist -17.5193
rhand -13.5188 -26.2713
rfingers 7.12502
rthumb 12.5931 -55.8717
lclavicle 8.64713e-015 -2.14687e-014
lhumerus -16.7176 -18.8816 89.642
lradius 72.4921
lwrist 11.7634
lhand -18.6129 -13.8624
lfingers 7.12502
lthumb 7.67875 15.9782
rfemur -33.873 -8.58304 6.51506
rtibia 51.1969
rfoot -20.0053 -1.40783
rtoes -3.53436
lfemur -30.1893 18.0418 -14.557
ltibia 47.9005
lfoot -17.4797 6.06427
ltoes -7.70918
896
root 6.47981 15.8759 -2.10612 -147.245 -75.8535 154.09
lowerback 29.9858 0.309133 -4.44847
upperback 5.68097 -1.66721 -0.518584
thorax -10.0017 -0.909628 2.65507
lowerneck -30.1672 0.662037 -3.98834
upperneck 36.4147 2.30677 0.12513
head 18.9229 0.0767887 1.22603
rclavicle 2.78299e-014 1.39149e-015
rhumerus -24.4664 1.24834 -87.9808
rradius 79.6087
rwrist -17.5771
rhand -13.4519 -26.2464
rfingers 7.12502
rthumb 12.6576 -55.8429
lclavicle 2.78299e-014 1.39149e-015
lhumerus -16.6468 -19.0749 89.6364
lradius 72.4087
lwrist 11.8564
lhand -18.4147 -14.0762
lfingers 7.12502
lthumb 7.87012 15.7573
rfemur -33.745 -8.52463 6.37857
rtibia 51.0781
rfoot -19.8858 -1.06368
rtoes -2.95976
lfemur -30.0901 18.1926 -14.6623
ltibia 47.9972
lfoot -17.6126 6.07879
ltoes -8.40304
897
root 6.48755 15.866 -2.09663 -146.966 -76.1229 153.889
lowerback 29.9559 0.295557 -4.15806
upperback 5.68 -1.58024 -0.446887
thorax -9.99999 -0.874981 2.53549
lowerneck -29.9794 0.752614 -4.10711
upperneck 36.5703 2.47796 0.137833
head 18.9586 0.118793 1.2923
rclavicle 1.66979e-014 1.25234e-014
rhumerus -24.4704 0.950475 -87.6481
rradius 79.5502
rwrist -17.7181
rhand -13.1899 -26.1825
rfingers 7.12502
rthumb 12.9102 -55.7631
lclavicle 1.66979e-014 1.25234e-014
lhumerus -16.6392 -19.4366 89.8168
lradius 72.2573
lwrist 11.919
lhand -19.4771 -14.3614
lfingers 7.12502
lthumb 6.84465 15.508
rfemur -33.8247 -8.68751 6.46309
rtibia 51.1607
rfoot -19.8134 -1.10176
rtoes -2.61202
lfemur -30.4143 18.2212 -14.6495
ltibia 48.1911
lfoot -17.5356 5.8404
ltoes -8.69345
898
root 6.46395 15.8607 -2.07516 -148.258 -75.9494 154.77
lowerback 30.1947 0.49929 -3.75824
upperback 5.84792 -1.22589 -0.438036
thorax -9.95729 -0.735099 2.18661
lowerneck -29.9065 0.812681 -4.22728
upperneck 36.8556 2.65846 0.0340586
head 19.1037 0.138188 1.30688
rclavicle 3.26007e-014 -2.5842e-014
rhumerus -24.5244 0.538465 -87.3012
rradius 79.5736
rwrist -17.6406
rhand -13.1314 -26.2877
rfingers 7.12502
rthumb 12.9666 -55.8648
lclavicle 3.26007e-014 -2.5842e-014
lhumerus -16.6346 -19.9328 90.118
lradius 72.0983
lwrist 11.9403
lhand -22.8577 -14.5786
lfingers 7.12502
lthumb 3.58055 15.371
rfemur -33.3259 -8.39644 6.36942
rtibia 51.0947
rfoot -20.0036 -0.991802
rtoes -3.11745
lfemur -29.8559 18.4453 -14.4905
ltibia 48.3318
lfoot -17.7579 5.75272
ltoes -8.28162
